<svg xmlns="http://www.w3.org/2000/svg" width="32" height="16" viewBox="0 0 32 16">
    <g fill="none" fill-rule="evenodd" stroke="#737882">
        <path d="M.5.5v.389L.111.5H0L.056.444 0 .39h.111L.5 0v.389h31V0l.389.389H32l-.056.055L32 .5h-.111L31.5.889V.5H.5zM.5 7.611V8l-.389-.389H0l.056-.055L0 7.5h.111L.5 7.111V7.5h31v-.389l.389.389H32l-.056.056.056.055h-.111L31.5 8v-.389H.5zM.5 14.722v.39l-.389-.39H0l.056-.055L0 14.61h.111l.389-.389v.39h31v-.39l.389.39H32l-.056.055.056.055h-.111l-.389.39v-.39H.5z"/>
    </g>
</svg>
